<svg width="21" height="21" viewBox="0 0 21 21" fill="none" xmlns="http://www.w3.org/2000/svg">
<path d="M16.7805 2.60146C15.103 0.923879 12.8725 0 10.5001 0C8.12763 0 5.89711 0.923879 4.21957 2.60146C2.54199 4.27909 1.61811 6.50952 1.61811 8.88191C1.61811 13.6812 6.156 17.6731 8.59393 19.8176C8.93272 20.1157 9.22529 20.373 9.45838 20.5907C9.75041 20.8635 10.1253 21 10.5 21C10.8749 21 11.2496 20.8635 11.5417 20.5907C11.7748 20.373 12.0673 20.1157 12.4061 19.8176C14.8441 17.6731 19.382 13.6812 19.382 8.88191C19.3819 6.50952 18.4581 4.27909 16.7805 2.60146ZM11.5936 18.894C11.2474 19.1986 10.9484 19.4616 10.7019 19.6918C10.5887 19.7975 10.4113 19.7976 10.2981 19.6918C10.0516 19.4615 9.75258 19.1985 9.40637 18.894C7.11442 16.8779 2.84817 13.125 2.84817 8.88195C2.84817 4.66275 6.28073 1.23018 10.5 1.23018C14.7192 1.23018 18.1517 4.66275 18.1517 8.88195C18.1518 13.125 13.8856 16.8779 11.5936 18.894Z" fill="white"/>
<path d="M10.5001 4.63232C8.34177 4.63232 6.58589 6.38817 6.58589 8.54646C6.58589 10.7048 8.34177 12.4606 10.5001 12.4606C12.6583 12.4606 14.4142 10.7048 14.4142 8.54646C14.4142 6.38817 12.6583 4.63232 10.5001 4.63232ZM10.5001 11.2304C9.02009 11.2304 7.81603 10.0264 7.81603 8.54642C7.81603 7.06649 9.02009 5.86243 10.5001 5.86243C11.98 5.86243 13.184 7.06649 13.184 8.54642C13.184 10.0264 11.98 11.2304 10.5001 11.2304Z" fill="white"/>
</svg>
